<svg width="58" height="102" viewBox="0 0 58 102" fill="none" xmlns="http://www.w3.org/2000/svg">
    <path d="M6.90786 32.0522C2.47246 32.0522 0.254763 29.5676 0.254763 24.5983C0.254763 17.247 2.86261 11.3948 8.07831 7.04151C13.2119 2.77039 19.8239 0.634826 27.9144 0.634826C37.6887 0.634826 45.1837 3.32481 50.3994 8.70478C55.2044 13.6741 57.6069 20.4504 57.6069 29.0337C57.6069 37.8223 54.3009 45.9539 47.6889 53.4283C41.9393 59.835 34.6496 64.8865 25.8199 68.5826C25.1628 68.8701 24.6084 69.0138 24.1566 69.0138C23.7459 69.0138 23.3558 68.9522 22.9862 68.829C22.6576 68.7058 22.288 68.4389 21.8773 68.0282C20.8917 67.0425 20.0703 65.79 19.4132 64.2704C18.7561 62.7509 18.4276 61.5804 18.4276 60.7591C18.4276 59.8966 18.8999 59.0753 19.8444 58.295C20.789 57.4736 22.0211 56.5906 23.5406 55.646C28.2224 52.7302 31.5489 50.225 33.5202 48.1305C35.5326 45.995 37.0316 44.1263 38.0172 42.5247C39.0439 40.8819 39.8448 39.3008 40.4197 37.7813C41.4875 35.0707 42.0214 32.5245 42.0214 30.1425C42.0214 27.7195 41.7545 25.5634 41.2206 23.6742C40.6867 21.744 39.8448 20.0191 38.6949 18.4996C36.0665 15.0499 32.5757 13.325 28.2224 13.325C19.1463 13.325 14.6082 17.7809 14.6082 26.6928C14.6082 28.5819 14.4645 29.814 14.177 30.3889C13.602 31.4978 12.4726 32.0522 10.7888 32.0522H6.90786ZM15.5938 90.698C15.5938 87.7821 16.6411 85.2564 18.7356 83.1209C20.7479 81.0264 23.2326 79.9791 26.1895 79.9791C29.1054 79.9791 31.5695 81.0264 33.5818 83.1209C35.6353 85.2564 36.662 87.7821 36.662 90.698C36.662 93.6549 35.6353 96.2012 33.5818 98.3367C31.5284 100.472 29.0643 101.54 26.1895 101.54C23.2736 101.54 20.789 100.472 18.7356 98.3367C16.6411 96.2012 15.5938 93.6549 15.5938 90.698Z" fill="#71997A"/>
    <path d="M8.07831 7.04151L5.51999 3.9666L5.51519 3.97061L8.07831 7.04151ZM50.3994 8.70478L53.2749 5.92428L53.2713 5.92054L50.3994 8.70478ZM47.6889 53.4283L50.6658 56.1L50.6754 56.0894L50.6848 56.0786L47.6889 53.4283ZM25.8199 68.5826L24.2753 64.8929L24.2459 64.9052L24.2166 64.918L25.8199 68.5826ZM22.9862 68.829L21.5817 72.5743L21.651 72.6003L21.7213 72.6238L22.9862 68.829ZM21.8773 68.0282L19.0489 70.8566L21.8773 68.0282ZM19.8444 58.295L22.392 61.3788L22.431 61.3466L22.4691 61.3134L19.8444 58.295ZM23.5406 55.646L25.6523 59.0432L25.6552 59.0414L23.5406 55.646ZM33.5202 48.1305L30.6091 45.3873L30.6074 45.3891L33.5202 48.1305ZM38.0172 42.5247L34.6252 40.4047L34.6179 40.4165L34.6106 40.4283L38.0172 42.5247ZM40.4197 37.7813L36.6981 36.3152L36.6882 36.3404L36.6786 36.3657L40.4197 37.7813ZM41.2206 23.6742L37.3653 24.7406L37.3683 24.7513L37.3713 24.7621L41.2206 23.6742ZM38.6949 18.4996L41.8845 16.0858L41.8766 16.0754L38.6949 18.4996ZM14.177 30.3889L17.728 32.2302L17.7415 32.2041L17.7547 32.1778L14.177 30.3889ZM18.7356 83.1209L21.5913 85.9217L21.6057 85.907L21.62 85.8922L18.7356 83.1209ZM33.5818 83.1209L30.6974 85.8922L30.6985 85.8933L33.5818 83.1209ZM18.7356 98.3367L21.6189 95.5643L21.6052 95.55L21.5913 95.5359L18.7356 98.3367ZM6.90786 28.0522C5.43182 28.0522 5.02229 27.6597 4.90222 27.5252C4.70489 27.3041 4.25476 26.5713 4.25476 24.5983H-3.74524C-3.74524 27.5945 -3.08651 30.5887 -1.06615 32.8523C1.03148 35.2024 3.9485 36.0522 6.90786 36.0522V28.0522ZM4.25476 24.5983C4.25476 18.3223 6.418 13.6375 10.6414 10.1124L5.51519 3.97061C-0.692773 9.15206 -3.74524 16.1717 -3.74524 24.5983H4.25476ZM10.6366 10.1164C14.9082 6.56246 20.5532 4.63483 27.9144 4.63483V-3.36517C19.0946 -3.36517 11.5155 -1.02168 5.51999 3.96661L10.6366 10.1164ZM27.9144 4.63483C36.951 4.63483 43.2754 7.10303 47.5274 11.489L53.2713 5.92054C47.092 -0.453409 38.4263 -3.36517 27.9144 -3.36517V4.63483ZM47.5238 11.4853C51.4427 15.5382 53.6069 21.2238 53.6069 29.0337H61.6069C61.6069 19.6769 58.966 11.8099 53.2749 5.92428L47.5238 11.4853ZM53.6069 29.0337C53.6069 36.7133 50.7516 43.929 44.6929 50.7781L50.6848 56.0786C57.8501 47.9788 61.6069 38.9314 61.6069 29.0337H53.6069ZM44.7119 50.7567C39.4008 56.6748 32.6198 61.3998 24.2753 64.8929L27.3644 72.2724C36.6794 68.3731 44.4777 62.9953 50.6658 56.1L44.7119 50.7567ZM24.2166 64.918C24.1288 64.9564 24.0585 64.9838 24.005 65.0029C23.9513 65.022 23.9192 65.031 23.9074 65.034C23.8953 65.0372 23.9101 65.0327 23.949 65.0271C23.9878 65.0215 24.0586 65.0138 24.1566 65.0138V73.0138C25.3894 73.0138 26.5243 72.6405 27.4232 72.2472L24.2166 64.918ZM24.1566 65.0138C24.1519 65.0138 24.1606 65.0135 24.1798 65.0166C24.1994 65.0197 24.224 65.0253 24.2511 65.0343L21.7213 72.6238C22.5204 72.8901 23.3394 73.0138 24.1566 73.0138V65.0138ZM24.3907 65.0837C24.5208 65.1325 24.6188 65.1818 24.6833 65.2179C24.7481 65.2541 24.7886 65.2822 24.8045 65.2937C24.832 65.3135 24.7989 65.293 24.7057 65.1998L19.0489 70.8566C19.632 71.4397 20.4794 72.161 21.5817 72.5743L24.3907 65.0837ZM24.7057 65.1998C24.137 64.631 23.5783 63.8244 23.0846 62.6828L15.7418 65.8581C16.5623 67.7556 17.6463 69.4541 19.0489 70.8566L24.7057 65.1998ZM23.0846 62.6828C22.8037 62.0332 22.6272 61.5354 22.5251 61.1719C22.4171 60.7871 22.4276 60.6747 22.4276 60.7591H14.4276C14.4276 62.4415 15.0435 64.2433 15.7418 65.8581L23.0846 62.6828ZM22.4276 60.7591C22.4276 60.9137 22.4057 61.064 22.3675 61.2002C22.3298 61.3344 22.2829 61.4318 22.2494 61.4901C22.1881 61.5968 22.1862 61.5487 22.392 61.3788L17.2969 55.2111C15.8354 56.4185 14.4276 58.2643 14.4276 60.7591H22.4276ZM22.4691 61.3134C23.2011 60.6769 24.2437 59.9188 25.6523 59.0432L21.4289 52.2489C19.7984 53.2624 18.3769 54.2703 17.2197 55.2765L22.4691 61.3134ZM25.6552 59.0414C30.4143 56.0774 34.0981 53.3529 36.433 50.872L30.6074 45.3891C28.9998 47.0971 26.0305 49.383 21.4259 52.2507L25.6552 59.0414ZM36.4314 50.8737C38.5391 48.6369 40.2395 46.5457 41.4239 44.6211L34.6106 40.4283C33.8237 41.707 32.526 43.353 30.6091 45.3873L36.4314 50.8737ZM41.4092 44.6447C42.5495 42.8203 43.4772 41.0036 44.1609 39.1968L36.6786 36.3657C36.2123 37.598 35.5384 38.9436 34.6252 40.4047L41.4092 44.6447ZM44.1414 39.2474C45.3533 36.171 46.0214 33.1245 46.0214 30.1425H38.0214C38.0214 31.9245 37.6217 33.9705 36.6981 36.3152L44.1414 39.2474ZM46.0214 30.1425C46.0214 27.434 45.7239 24.9009 45.0698 22.5864L37.3713 24.7621C37.785 26.2259 38.0214 28.005 38.0214 30.1425H46.0214ZM45.0758 22.6079C44.4141 20.2157 43.3548 18.0287 41.8845 16.0858L35.5052 20.9134C36.3348 22.0095 36.9592 23.2724 37.3653 24.7406L45.0758 22.6079ZM41.8766 16.0754C38.4883 11.6283 33.8185 9.32498 28.2224 9.32498V17.325C31.3328 17.325 33.6447 18.4714 35.5131 20.9238L41.8766 16.0754ZM28.2224 9.32498C23.0859 9.32498 18.4953 10.5862 15.2093 13.8128C11.9097 17.0526 10.6082 21.6016 10.6082 26.6928H18.6082C18.6082 22.8721 19.5757 20.7371 20.8142 19.5211C22.0662 18.2917 24.2827 17.325 28.2224 17.325V9.32498ZM10.6082 26.6928C10.6082 27.5535 10.5746 28.1653 10.5273 28.5702C10.504 28.77 10.4824 28.8743 10.4749 28.906C10.4636 28.9535 10.4885 28.8217 10.5993 28.6001L17.7547 32.1778C18.2195 31.2482 18.3882 30.2281 18.4734 29.4972C18.5699 28.67 18.6082 27.7212 18.6082 26.6928H10.6082ZM10.626 28.5477C10.6689 28.4649 10.7411 28.3583 10.8481 28.2539C10.9548 28.1498 11.06 28.0831 11.136 28.0457C11.273 27.9785 11.2168 28.0522 10.7888 28.0522V36.0522C13.3649 36.0522 16.2266 35.1258 17.728 32.2302L10.626 28.5477ZM10.7888 28.0522H6.90786V36.0522H10.7888V28.0522ZM19.5938 90.698C19.5938 88.8594 20.2091 87.331 21.5913 85.9217L15.8798 80.32C13.0731 83.1818 11.5938 86.7049 11.5938 90.698H19.5938ZM21.62 85.8922C22.8629 84.5985 24.299 83.9791 26.1895 83.9791V75.9791C22.1661 75.9791 18.6329 77.4542 15.8512 80.3496L21.62 85.8922ZM26.1895 83.9791C28.0216 83.9791 29.4426 84.5861 30.6974 85.8922L36.4662 80.3496C33.6964 77.4666 30.1892 75.9791 26.1895 75.9791V83.9791ZM30.6985 85.8933C32.0483 87.297 32.662 88.8342 32.662 90.698H40.662C40.662 86.7301 39.2222 83.2158 36.4652 80.3484L30.6985 85.8933ZM32.662 90.698C32.662 92.619 32.037 94.1723 30.6985 95.5643L36.4652 101.109C39.2335 98.2301 40.662 94.6909 40.662 90.698H32.662ZM30.6985 95.5643C29.3733 96.9425 27.9394 97.5401 26.1895 97.5401V105.54C30.1892 105.54 33.6835 104.002 36.4652 101.109L30.6985 95.5643ZM26.1895 97.5401C24.3813 97.5401 22.9318 96.9297 21.6189 95.5643L15.8522 101.109C18.6462 104.015 22.166 105.54 26.1895 105.54V97.5401ZM21.5913 95.5359C20.2207 94.1384 19.5938 92.594 19.5938 90.698H11.5938C11.5938 94.7159 13.0615 98.2639 15.8798 101.138L21.5913 95.5359Z" fill="#494949"/>
</svg>