<svg width="512" height="512" viewBox="0 0 512 512" fill="none" xmlns="http://www.w3.org/2000/svg">
    <rect width="512" height="512" fill="#DBE5DE"/>
    <path d="M61 152V62H444" stroke="#494949" stroke-width="4" stroke-linecap="square" stroke-linejoin="round"/>
    <path d="M450 361L450 451L67 451" stroke="#494949" stroke-width="4" stroke-linecap="square" stroke-linejoin="round"/>
    <path d="M80.9305 52.943C79.3314 57.2605 79.8223 62.0752 82.2599 65.9811C87.7483 74.7755 78.9832 85.5309 69.2621 81.9304C64.9446 80.3312 60.1299 80.8222 56.224 83.2597C47.4297 88.7481 36.6742 79.9831 40.2747 70.262C41.8739 65.9445 41.383 61.1298 38.9454 57.2239C33.457 48.4295 42.222 37.6741 51.9431 41.2746C56.2606 42.8737 61.0753 42.3828 64.9812 39.9452C73.7756 34.4568 84.531 43.2219 80.9305 52.943ZM469.931 441.943C468.331 446.26 468.822 451.075 471.26 454.981C476.748 463.775 467.983 474.531 458.262 470.93C453.945 469.331 449.13 469.822 445.224 472.26C436.43 477.748 425.674 468.983 429.275 459.262C430.874 454.944 430.383 450.13 427.945 446.224C422.457 437.429 431.222 426.674 440.943 430.274C445.261 431.874 450.075 431.383 453.981 428.945C462.776 423.457 473.531 432.222 469.931 441.943Z" fill="#D0D8FC" stroke="#494949" stroke-width="4"/>
</svg>